<svg xmlns="http://www.w3.org/2000/svg" xmlns:xlink="http://www.w3.org/1999/xlink" width="293.422" height="450.924" viewBox="0 0 293.422 450.924">
  <defs>
    <style>
      .cls-1, .cls-10, .cls-13, .cls-14, .cls-15, .cls-19 {
        fill: none;
      }

      .cls-2 {
        opacity: 0.1;
      }

      .cls-3 {
        fill: #b0cf63;
      }

      .cls-4 {
        fill: #f5f6f9;
      }

      .cls-5 {
        fill: #6dace8;
      }

      .cls-6 {
        fill: #ffc25e;
      }

      .cls-7 {
        fill: #353d4d;
      }

      .cls-8 {
        fill: #ff3545;
      }

      .cls-9 {
        fill: #fca67f;
      }

      .cls-10, .cls-15 {
        stroke: #f7607c;
      }

      .cls-10, .cls-13, .cls-14, .cls-15, .cls-19 {
        stroke-miterlimit: 10;
      }

      .cls-10 {
        stroke-width: 0.509px;
      }

      .cls-11 {
        fill: #423149;
      }

      .cls-12 {
        fill: #87b7e6;
      }

      .cls-13 {
        stroke: #080355;
        stroke-linecap: round;
        stroke-width: 0.363px;
        opacity: 0.58;
      }

      .cls-14 {
        stroke: #2b2030;
      }

      .cls-14, .cls-19 {
        stroke-width: 1.018px;
      }

      .cls-15 {
        stroke-width: 0.485px;
      }

      .cls-16 {
        fill: #ffcb78;
      }

      .cls-17 {
        fill: #9ab559;
      }

      .cls-18 {
        clip-path: url(#clip-path);
      }

      .cls-19 {
        stroke: #f5f6f9;
      }

      .cls-20 {
        clip-path: url(#clip-path-2);
      }

      .cls-21 {
        fill: #dadbde;
      }
    </style>
    <clipPath id="clip-path">
      <path id="Tracé_65" data-name="Tracé 65" class="cls-1" d="M246.9,186.418v7.667l-8.77-3.528V226.37l38.662,14.289v.452l8.77-4.591V201.973Z" transform="translate(-238.132 -186.418)"/>
    </clipPath>
    <clipPath id="clip-path-2">
      <path id="Tracé_73" data-name="Tracé 73" class="cls-1" d="M239.133,192.209v7.667l-8.77-3.528v35.813l38.662,14.289v.452l8.77-4.591V207.765Z" transform="translate(-230.364 -192.209)"/>
    </clipPath>
  </defs>
  <g id="OBJECTS" transform="translate(-122.991 -29.857)">
    <ellipse id="Ellipse_1" data-name="Ellipse 1" class="cls-2" cx="113.199" cy="16.904" rx="113.199" ry="16.904" transform="translate(153.765 446.973)"/>
    <g id="Groupe_2" data-name="Groupe 2" transform="translate(122.991 112.014)">
      <circle id="Ellipse_2" data-name="Ellipse 2" class="cls-3" cx="25.803" cy="25.803" r="25.803" transform="translate(0 10.189) rotate(-11.387)"/>
      <g id="Groupe_1" data-name="Groupe 1" transform="translate(21.893 12.534)">
        <path id="Tracé_1" data-name="Tracé 1" class="cls-4" d="M145.862,114.96a1.514,1.514,0,1,0-1.192,1.779A1.516,1.516,0,0,0,145.862,114.96Z" transform="translate(-142.324 -113.74)"/>
        <path id="Tracé_2" data-name="Tracé 2" class="cls-4" d="M147.852,117.361a.757.757,0,1,0-.6.89A.759.759,0,0,0,147.852,117.361Z" transform="translate(-141.874 -113.352)"/>
        <path id="Tracé_3" data-name="Tracé 3" class="cls-4" d="M142.647,149.774l22.622-6.219-11.174-10.047-2.748-12.8,2.334-1.556-.291-1.474-11.005,5.292.28,1.421,2.444-.92,2.33,11.793Zm7-27.1a.966.966,0,1,1-.761,1.136A.968.968,0,0,1,149.65,122.678Zm2.157,7.133a.735.735,0,1,1-.864-.579A.735.735,0,0,1,151.807,129.811Zm-3.971-3.9a1.094,1.094,0,1,1-.862,1.286A1.095,1.095,0,0,1,147.836,125.916Zm.2,12.01s2.158-.027,1.72-1.481c-.634-2.1.1-3.083,1.193-1.712.912,1.147,1.356,1.328,1.462.2.08-.848,1.058-.2,3.69,2.061l6.468,5.888-17.852,4.894Z" transform="translate(-142.385 -113.233)"/>
      </g>
    </g>
    <g id="Groupe_5" data-name="Groupe 5" transform="translate(215.985 29.857)">
      <circle id="Ellipse_3" data-name="Ellipse 3" class="cls-3" cx="25.956" cy="25.956" r="25.956" transform="matrix(0.963, -0.268, 0.268, 0.963, 0, 13.923)"/>
      <g id="Groupe_4" data-name="Groupe 4" transform="translate(15.958 15.498)">
        <path id="Tracé_4" data-name="Tracé 4" class="cls-4" d="M239.266,59s-1.33-.717-1.761-4.047-1.836-7.622-9.262-4.484-9.805,12.134-8.312,16.2,6.618,11.381,19.143,5.931C251.684,67.117,244.062,61.724,239.266,59Zm-15.028,8.6a1.866,1.866,0,1,1,1.417-2.227A1.865,1.865,0,0,1,224.238,67.6Zm4.557,4.143a1.867,1.867,0,1,1,1.417-2.227A1.868,1.868,0,0,1,228.8,71.742Zm.22-10.531c-1.619-.387-2.541-2.327-2.061-4.333s2.18-3.318,3.8-2.93,2.541,2.327,2.061,4.333S230.633,61.6,229.015,61.211Zm6.29,10.547a1.866,1.866,0,1,1,1.418-2.227A1.865,1.865,0,0,1,235.305,71.757Zm5.171-3.063a1.867,1.867,0,1,1,1.417-2.228A1.867,1.867,0,0,1,240.476,68.695Z" transform="translate(-219.508 -42.84)"/>
        <g id="Groupe_3" data-name="Groupe 3" transform="translate(18.982)">
          <path id="Tracé_5" data-name="Tracé 5" class="cls-4" d="M247.483,63.531s-8.821-8.61-9.229-16.286A40.619,40.619,0,0,1,247.483,63.531Z" transform="translate(-236.075 -43.115)"/>
          <path id="Tracé_6" data-name="Tracé 6" class="cls-4" d="M236.467,43.586a9.966,9.966,0,0,0-.062,3.014c.2,1.615,2.241,2.678,2.762,1.22C239.933,45.68,237.087,46.69,236.467,43.586Z" transform="translate(-236.323 -43.586)"/>
          <path id="Tracé_7" data-name="Tracé 7" class="cls-4" d="M238.7,49.81l1.273-.8-1.189-1.527-.908.56Z" transform="translate(-236.123 -43.084)"/>
        </g>
      </g>
    </g>
    <g id="Groupe_7" data-name="Groupe 7" transform="translate(281.566 41.642)">
      <circle id="Ellipse_4" data-name="Ellipse 4" class="cls-5" cx="32.586" cy="32.586" r="32.586" transform="translate(0 62.052) rotate(-72.197)"/>
      <g id="Groupe_6" data-name="Groupe 6" transform="translate(23.859 19.418)">
        <path id="Tracé_8" data-name="Tracé 8" class="cls-4" d="M292.73,83.65c.025.015.049.033.073.047C292.779,83.683,292.755,83.665,292.73,83.65Z" transform="translate(-283.555 -54.13)"/>
        <path id="Tracé_9" data-name="Tracé 9" class="cls-4" d="M301.363,57.5c.5.058.984.143,1.465.244C302.348,57.641,301.861,57.557,301.363,57.5Z" transform="translate(-282.442 -57.499)"/>
        <path id="Tracé_10" data-name="Tracé 10" class="cls-4" d="M293.882,84.243c.059.027.114.061.174.087C294,84.3,293.941,84.27,293.882,84.243Z" transform="translate(-283.406 -54.053)"/>
        <path id="Tracé_11" data-name="Tracé 11" class="cls-4" d="M286.1,74.768c-.033-.138-.071-.274-.1-.414C286.028,74.494,286.065,74.631,286.1,74.768Z" transform="translate(-284.422 -55.327)"/>
        <path id="Tracé_12" data-name="Tracé 12" class="cls-4" d="M285.7,71.344c.011-.491.038-.984.1-1.481C285.738,70.36,285.711,70.853,285.7,71.344Z" transform="translate(-284.46 -55.906)"/>
        <path id="Tracé_13" data-name="Tracé 13" class="cls-4" d="M285.886,73.734c-.036-.228-.069-.456-.095-.687C285.817,73.278,285.85,73.506,285.886,73.734Z" transform="translate(-284.449 -55.496)"/>
        <path id="Tracé_14" data-name="Tracé 14" class="cls-4" d="M304.463,58.228c.219.078.435.163.649.249C304.9,58.389,304.682,58.307,304.463,58.228Z" transform="translate(-282.043 -57.405)"/>
        <path id="Tracé_15" data-name="Tracé 15" class="cls-4" d="M303.123,57.828c.292.072.584.149.869.237C303.707,57.977,303.415,57.9,303.123,57.828Z" transform="translate(-282.216 -57.457)"/>
        <path id="Tracé_16" data-name="Tracé 16" class="cls-4" d="M291.628,82.947l0,0Z" transform="translate(-283.697 -54.22)"/>
        <path id="Tracé_17" data-name="Tracé 17" class="cls-4" d="M285.739,72.549c-.02-.3-.029-.6-.034-.9C285.71,71.952,285.717,72.253,285.739,72.549Z" transform="translate(-284.46 -55.675)"/>
        <path id="Tracé_18" data-name="Tracé 18" class="cls-4" d="M313.729,69.952c.007.068.021.134.028.2,0,.029.009.059.011.088C313.761,70.145,313.739,70.05,313.729,69.952Z" transform="translate(-280.849 -55.895)"/>
        <path id="Tracé_19" data-name="Tracé 19" class="cls-4" d="M295.1,84.731c.095.034.185.077.28.108C295.284,84.808,295.194,84.765,295.1,84.731Z" transform="translate(-283.249 -53.99)"/>
        <path id="Tracé_20" data-name="Tracé 20" class="cls-4" d="M316.928,60.867l.1-.08a1.066,1.066,0,1,0-1.312-1.654l-3.1,2.457h0a15.738,15.738,0,0,1,1.445,1.549l1.413-1.122a17.343,17.343,0,0,1-27.167,21.56l.893-.708h0a15.938,15.938,0,0,1-1.181-1.759l-2.923,2.32a1.066,1.066,0,1,0,1.313,1.654l.448-.356A19.247,19.247,0,0,0,299.2,91.612a.766.766,0,0,0-.034.1l-.4,3.48-5.591-.643c-1.537-.177-3.641.857-3.818,2.394l-.035.312a1.936,1.936,0,0,0,0,.472l-.209-.024a.7.7,0,1,0-.16,1.4l20.2,2.325a.7.7,0,1,0,.16-1.4l-.13-.016a2.014,2.014,0,0,0,.106-.459l.036-.31c.177-1.539-1.636-3.023-3.174-3.2l-5.361-.616.4-3.48a1,1,0,0,0-.015-.174,19.184,19.184,0,0,0,15.75-30.905Z" transform="translate(-284.602 -57.326)"/>
        <path id="Tracé_21" data-name="Tracé 21" class="cls-4" d="M292.392,86.1l0,0c.4.283.814.545,1.241.791.025.015.049.033.073.047.4.226.808.429,1.227.622.059.027.114.061.174.087.391.174.794.322,1.2.464.095.034.185.077.28.108.391.129.8.23,1.2.328.117.029.23.07.349.1a16,16,0,0,0,1.612.269,15.831,15.831,0,0,0,13.075-4.6c-.795.716-1.435,1.255-1.435,1.255a17.834,17.834,0,0,0-.068-2.134c-.1-.8-.855-1.475-.652-.485s-.116.318-.64.77-1.814.027-2.771-.2-.8.42-.115.656-.534.883-1.661.753a4.09,4.09,0,0,0-2.711.3c-1.04.489-1.431,1.155-2.17.716s-1.3.754-1.908.174-1.33-.075-1.931-.656.262-.914,1.223-1.394.274-.676,1.077-1.49.887-.527.943-1.7.246-.76,1.028-1.063-.222-.458-.116-1.036-.205-.614-.856-1.122a5.786,5.786,0,0,1-.787-.681s-.424.266-.118-1.706,1.083-.86,1.407-1.964,1.874-1.241,1.874-1.241c.595-.719.673,1.337,1.364.472s1.379.316,2.618.852.73.832.49,1.552-.366,1.807.417,1.307-.383.113.936.935.547-.961,1.088-2,.138-2.464-.42-2.41-.062,1.567-.142,2.267-.245-.3-.245-.3l-.484.141s-1.088-.125-.28-.308.339-.551.256-1.544-.8-.6-1.414-.36-.228-.065-1.228-.614.4-1.095.4-1.095.34-.905.764-.148.224.458,1.322.624.713-.862,0-1.811.783-.3,1.756-.9.96.9.078,1.032-.779.619-.363,1.454-.028-.437,1.315.033-.063-2.014,1.42-1.568.569-.84,1.5-.694,1.419,1.344,1.927,2.407.658.095.893.791.281.978.518-.059c.13-.563.31-.58.452-.482-.007-.069-.021-.135-.028-.2-.047-.43-.1-.859-.181-1.28-.011-.059-.031-.115-.042-.175-.094-.456-.2-.908-.331-1.35-.008-.025-.018-.049-.026-.075a15.919,15.919,0,0,0-2.838-5.364h0a15.738,15.738,0,0,0-1.445-1.549,15.953,15.953,0,0,0-3.834-2.687l-.1-.052a4.16,4.16,0,0,1,.52,1.1c.314,1.374.839.411,1.824,1.587s.608,1.9,1.422,2.525,2.257.909.856,1.279-.5-.824-1.652-.012-.815-.095-2.032-.293.326-.789-1.544-.945-.65-1.019.752-1.921,1.008-1.064-.268-2.293.473,1.018-.751.877-.362,1.612-1.456,1.387-.244-.462-.832-1.473,1.607.361.9-.684-.5.257-2.17-1.155-2.678,1.208-1.2,1.732,1.859-.259,2.344,1.214a1.281,1.281,0,0,1-2.043,1.478c-1.124-.838-.921-1.405-1.25-.085s-.6.58-2.19.043-.9,1.194-2.138.108-1.1-.186-2.38.671.341-.905-.737-1.8-1.39.785-1.39.785,1.116,1.074-.492,1.715-.3,1.087.029,2.306.877,1.1,1.1,2.783-.43.659-.1,2.882-.324,3.328-2.908,3.385-3.307,1.391-3.307,1.391-.073,1.645-.433,1.19-.363-1.46.14-2.759-.382-1.815,1-2.01,1.523-1.951,1.742-3.343-.07-1.956.453-2.9,1.378.335,1.487-.952-1.409-.752-.226-1.8.743-1.331.721-2.514,1.282-1.565.141-1.224c-.49.147-.335-.378,0-1.024A15.817,15.817,0,0,0,285.8,71.332c-.058.5-.085.99-.1,1.481,0,.181,0,.359.006.538,0,.3.014.6.034.9q.024.34.063.677c.026.231.059.459.095.687.042.264.085.528.139.788.029.14.068.277.1.414a15.975,15.975,0,0,0,1.745,4.344h0a15.572,15.572,0,0,0,4.51,4.942Zm8.936.753c3.046-.475,2.035.786.829.667s-1.418,1.036-1.929.348S301.328,86.855,301.328,86.855Zm12.88-19.4c.554-.881,1.318.507,1.318.507.307.92.627.19.655,1.491S313.653,68.338,314.208,67.456Zm-4.588-1.531s.221-.388.874.1,1.209.788-.075.65S309.62,65.926,309.62,65.926Z" transform="translate(-284.461 -57.375)"/>
        <path id="Tracé_22" data-name="Tracé 22" class="cls-4" d="M306.069,58.919c-.126-.064-.252-.131-.38-.192.095.044.185.095.278.14Z" transform="translate(-281.885 -57.341)"/>
        <path id="Tracé_23" data-name="Tracé 23" class="cls-4" d="M313.807,71.323c0,.117.015.231.014.35C313.822,71.554,313.808,71.44,313.807,71.323Z" transform="translate(-280.839 -55.718)"/>
        <path id="Tracé_24" data-name="Tracé 24" class="cls-4" d="M296.411,85.118c.117.029.23.069.349.1C296.641,85.188,296.528,85.147,296.411,85.118Z" transform="translate(-283.08 -53.94)"/>
        <path id="Tracé_25" data-name="Tracé 25" class="cls-4" d="M313.574,68.838c-.011-.059-.031-.115-.042-.175C313.543,68.723,313.562,68.779,313.574,68.838Z" transform="translate(-280.874 -56.061)"/>
        <path id="Tracé_26" data-name="Tracé 26" class="cls-4" d="M313.242,67.476c-.008-.025-.018-.049-.026-.075C313.224,67.427,313.234,67.451,313.242,67.476Z" transform="translate(-280.915 -56.223)"/>
      </g>
    </g>
    <g id="Groupe_15" data-name="Groupe 15" transform="translate(301.566 120.455)">
      <circle id="Ellipse_5" data-name="Ellipse 5" class="cls-6" cx="23.737" cy="23.737" r="23.737" transform="matrix(0.808, -0.589, 0.589, 0.808, 0, 27.945)"/>
      <g id="Groupe_14" data-name="Groupe 14" transform="translate(18.324 17.142)">
        <g id="Groupe_8" data-name="Groupe 8" transform="translate(6.264 6.027)">
          <path id="Tracé_27" data-name="Tracé 27" class="cls-4" d="M307.586,139.115a.621.621,0,0,0-.444.314.857.857,0,0,0-.06.567.7.7,0,0,0,.823.59l.764-.166-.042-.191S308.227,138.976,307.586,139.115Z" transform="translate(-302.437 -129.548)"/>
          <path id="Tracé_28" data-name="Tracé 28" class="cls-4" d="M313.626,138.574a.7.7,0,0,0-.823-.59c-.651.141-.482,1.464-.48,1.478l.034.158.765-.166A.7.7,0,0,0,313.626,138.574Z" transform="translate(-301.762 -129.695)"/>
          <rect id="Rectangle_2" data-name="Rectangle 2" class="cls-4" width="2.43" height="6.423" transform="translate(7.443 11.651) rotate(-12.265)"/>
          <path id="Tracé_29" data-name="Tracé 29" class="cls-4" d="M308.619,130.957a7.861,7.861,0,0,0-1.652,14.393,3.27,3.27,0,0,1,1.57,2.161l.365,1.679,1.875-.406-1.364-6.278-.764.166a1.683,1.683,0,0,1-2.035-1.369,1.86,1.86,0,0,1,.154-1.255,1.636,1.636,0,0,1,1.13-.835c1.274-.277,2.01,1.04,2.245,1.861l.049.222,2.375-.516-.042-.191c-.133-.877-.008-2.381,1.264-2.657a1.772,1.772,0,0,1,.752,3.461l-.764.166,1.365,6.276,2.017-.439-.393-1.81a3.257,3.257,0,0,1,.5-2.565,7.861,7.861,0,0,0-8.642-12.064Z" transform="translate(-302.965 -130.639)"/>
          <rect id="Rectangle_3" data-name="Rectangle 3" class="cls-3" width="1.018" height="1.048" transform="translate(11.182 17.411) rotate(-12.255)"/>
          <rect id="Rectangle_4" data-name="Rectangle 4" class="cls-3" width="1.018" height="1.048" transform="matrix(0.977, -0.212, 0.212, 0.977, 7.813, 18.143)"/>
        </g>
        <path id="Tracé_30" data-name="Tracé 30" class="cls-4" d="M310.472,150.6c.134.62,1.332.886,2.675.595s2.322-1.032,2.188-1.651" transform="translate(-295.734 -122.176)"/>
        <path id="Tracé_31" data-name="Tracé 31" class="cls-4" d="M316.559,147.337l-7.569,1.645a.692.692,0,0,1-.868-.4h0c-.067-.309.213-.636.623-.725l7.569-1.644a.692.692,0,0,1,.868.4h0C317.249,146.922,316.969,147.248,316.559,147.337Z" transform="translate(-296.038 -122.608)"/>
        <path id="Tracé_32" data-name="Tracé 32" class="cls-4" d="M316.89,148.864l-7.569,1.645a.691.691,0,0,1-.867-.4h0c-.068-.309.213-.634.623-.724l7.569-1.645a.69.69,0,0,1,.867.4h0C317.581,148.45,317.3,148.775,316.89,148.864Z" transform="translate(-295.995 -122.411)"/>
        <g id="Groupe_9" data-name="Groupe 9" transform="translate(19.333 2.13)">
          <line id="Ligne_1" data-name="Ligne 1" class="cls-7" y1="2.849" x2="1.832" transform="translate(0.309 0.309)"/>
          <path id="Tracé_33" data-name="Tracé 33" class="cls-4" d="M314.917,130.646a.31.31,0,0,1-.325-.47l1.832-2.849a.309.309,0,1,1,.519.335l-1.832,2.848A.3.3,0,0,1,314.917,130.646Z" transform="translate(-314.542 -127.186)"/>
        </g>
        <g id="Groupe_10" data-name="Groupe 10" transform="translate(23.718 9.802)">
          <line id="Ligne_2" data-name="Ligne 2" class="cls-7" y1="0.733" x2="3.372" transform="translate(0.313 0.312)"/>
          <path id="Tracé_34" data-name="Tracé 34" class="cls-4" d="M322.177,134.6l-3.372.733a.312.312,0,1,1-.132-.61l3.372-.733a.312.312,0,1,1,.132.61Z" transform="translate(-318.427 -133.983)"/>
        </g>
        <g id="Groupe_11" data-name="Groupe 11" transform="translate(10.691)">
          <line id="Ligne_3" data-name="Ligne 3" class="cls-7" x1="0.776" y1="3.574" transform="translate(0.322 0.321)"/>
          <path id="Tracé_35" data-name="Tracé 35" class="cls-4" d="M308.052,129.51a.323.323,0,0,1-.383-.246l-.776-3.574a.321.321,0,1,1,.628-.137l.777,3.574A.321.321,0,0,1,308.052,129.51Z" transform="translate(-306.886 -125.3)"/>
        </g>
        <g id="Groupe_12" data-name="Groupe 12" transform="translate(2.065 5.756)">
          <line id="Ligne_4" data-name="Ligne 4" class="cls-7" x1="3.414" y1="2.196" transform="translate(0.339 0.339)"/>
          <path id="Tracé_36" data-name="Tracé 36" class="cls-4" d="M303.071,133.264a.338.338,0,0,1-.255-.046l-3.415-2.2a.339.339,0,1,1,.367-.57l3.414,2.2a.338.338,0,0,1,.1.468A.343.343,0,0,1,303.071,133.264Z" transform="translate(-299.245 -130.399)"/>
        </g>
        <g id="Groupe_13" data-name="Groupe 13" transform="translate(0 14.955)">
          <line id="Ligne_5" data-name="Ligne 5" class="cls-7" x1="3.372" y2="0.733" transform="translate(0.313 0.312)"/>
          <path id="Tracé_37" data-name="Tracé 37" class="cls-4" d="M301.166,139.164l-3.372.733a.312.312,0,1,1-.132-.61l3.372-.733a.312.312,0,1,1,.132.61Z" transform="translate(-297.416 -138.547)"/>
        </g>
      </g>
    </g>
    <g id="Groupe_18" data-name="Groupe 18" transform="translate(360.772 82.483)">
      <circle id="Ellipse_6" data-name="Ellipse 6" class="cls-8" cx="19.948" cy="19.948" r="19.948" transform="translate(0 23.148) rotate(-35.466)"/>
      <g id="Groupe_17" data-name="Groupe 17" transform="translate(15.801 16.788)">
        <rect id="Rectangle_5" data-name="Rectangle 5" class="cls-4" width="2.628" height="1.433" rx="0.363" transform="translate(7.041 12.935) rotate(-36.495)"/>
        <path id="Tracé_38" data-name="Tracé 38" class="cls-4" d="M355.015,102.542l.922,1.246a.813.813,0,0,1-.319,1.078l-5.837,4.319a.815.815,0,0,1-1.125-.01l-.921-1.246a.814.814,0,0,1,.319-1.078l5.837-4.319A.814.814,0,0,1,355.015,102.542Z" transform="translate(-347.63 -89.936)"/>
        <g id="Groupe_16" data-name="Groupe 16" transform="translate(7.437)">
          <path id="Tracé_39" data-name="Tracé 39" class="cls-4" d="M368.635,94.588a7.992,7.992,0,1,0-1.672,11.178A7.992,7.992,0,0,0,368.635,94.588Zm-11.342,8.39a6.115,6.115,0,1,1,8.553,1.28A6.115,6.115,0,0,1,357.293,102.977Z" transform="translate(-354.218 -91.349)"/>
        </g>
      </g>
    </g>
    <g id="Groupe_20" data-name="Groupe 20" transform="translate(151.668 54.795)">
      <circle id="Ellipse_7" data-name="Ellipse 7" class="cls-6" cx="21.119" cy="21.119" r="21.119"/>
      <g id="Groupe_19" data-name="Groupe 19" transform="translate(7.021 6.603)">
        <path id="Tracé_40" data-name="Tracé 40" class="cls-4" d="M154.9,76.518l-.283,2.264,12.818,1.6,12.818,1.6.283-2.264-12.818-1.6Z" transform="translate(-154.614 -55.386)"/>
        <path id="Tracé_41" data-name="Tracé 41" class="cls-4" d="M182.349,65.438,170.285,57.8l-13.573,4.437,12.818,1.6Z" transform="translate(-154.344 -57.798)"/>
        <path id="Tracé_42" data-name="Tracé 42" class="cls-4" d="M179.528,68.141l2.521.315.283-2.263-12.819-1.6-12.818-1.6-.283,2.264,2.638.33-1.185,9.492-2.579-.322L155,77.017l12.819,1.6,12.818,1.6.282-2.263-2.578-.323ZM175.685,77.3l-3.283-.41,1.186-9.492,3.283.41ZM161.707,65.915l3.283.41L163.8,75.817l-3.283-.41Zm4.755,10.235,1.185-9.492,1.584.2,1.7.212-1.186,9.492-1.641-.205Z" transform="translate(-154.564 -57.13)"/>
      </g>
    </g>
    <g id="Groupe_27" data-name="Groupe 27" transform="translate(201.086 99.75)">
      <circle id="Ellipse_8" data-name="Ellipse 8" class="cls-8" cx="20.952" cy="20.952" r="20.952" transform="translate(0 0.532) rotate(-0.727)"/>
      <g id="Groupe_26" data-name="Groupe 26" transform="translate(5.526 9.142)">
        <g id="Groupe_21" data-name="Groupe 21" transform="translate(14.535 10.637)">
          <path id="Tracé_43" data-name="Tracé 43" class="cls-4" d="M209.944,124.195l1.151-12.428,2.028.188-.46,4.966,5.482-7.628,11.117,6.725-1.054,1.743L218.7,112.01Z" transform="translate(-209.944 -109.294)"/>
        </g>
        <g id="Groupe_22" data-name="Groupe 22" transform="translate(17.639)">
          <rect id="Rectangle_6" data-name="Rectangle 6" class="cls-4" width="8.814" height="1.11" transform="translate(0 1.503) rotate(-9.817)"/>
        </g>
        <g id="Groupe_25" data-name="Groupe 25" transform="translate(0 5.833)">
          <g id="Groupe_23" data-name="Groupe 23" transform="translate(0 1.626)">
            <rect id="Rectangle_7" data-name="Rectangle 7" class="cls-4" width="2.037" height="10.356" transform="translate(0 1.782) rotate(-61.042)"/>
          </g>
          <g id="Groupe_24" data-name="Groupe 24" transform="translate(1.626)">
            <rect id="Rectangle_8" data-name="Rectangle 8" class="cls-4" width="10.356" height="2.037" transform="translate(0 9.062) rotate(-61.047)"/>
          </g>
        </g>
      </g>
    </g>
    <g id="Groupe_38" data-name="Groupe 38" transform="translate(136.498 130.614)">
      <path id="Tracé_44" data-name="Tracé 44" class="cls-9" d="M246.079,178.772s3.555-.82,3.28-9.3c0,0-7.382,0-8.885-5.332s-1.5-17.635-1.367-25.153c0,0-.588-4.239,5.106-7.109s20.047-3.965,22.1,1.094,1.913,14.081,1.913,14.081,2.331-5.166,7.177-3.349c6.022,2.255,1.062,16.452-6.63,11.551,0,0-2.324,19.821,2.461,22.693,0,0-1.995,12.911-12.912,12.911S246.079,178.772,246.079,178.772Z" transform="translate(-121.544 -117.781)"/>
      <path id="Tracé_45" data-name="Tracé 45" class="cls-10" d="M249.729,143.59s0,3.9-1.777,5.835c-1.3,1.421-.965,3,1.777,4.217" transform="translate(-120.492 -115.96)"/>
      <g id="Groupe_28" data-name="Groupe 28" transform="translate(134.478 26.26)">
        <path id="Tracé_46" data-name="Tracé 46" class="cls-11" d="M254.764,142.469c-.6.264-.667,1.088-.676,1.662a6.521,6.521,0,0,0,.2,2.05.915.915,0,0,0,1.75,0c.218-.787.347-4.425-1.274-3.712Z" transform="translate(-254.085 -142.376)"/>
      </g>
      <g id="Groupe_29" data-name="Groupe 29" transform="translate(123.098 26.246)">
        <path id="Tracé_47" data-name="Tracé 47" class="cls-11" d="M244.935,142.408c-.692.248-.8.928-.874,1.588a6.392,6.392,0,0,0,.073,2.185.915.915,0,0,0,1.75,0,6.237,6.237,0,0,0,.17-2.39c-.052-.508-.326-1.67-1.12-1.384Z" transform="translate(-244.004 -142.364)"/>
      </g>
      <path id="Tracé_48" data-name="Tracé 48" class="cls-11" d="M245.369,428.87a78.188,78.188,0,0,1,0,10.663c-.453,3.691-17.552,12.5-27.806,14.759,0,0,15.46-11.888,17.715-16.193a24.748,24.748,0,0,0,2.461-9.228Z" transform="translate(-124.313 -117.584)"/>
      <path id="Tracé_49" data-name="Tracé 49" class="cls-11" d="M279.835,428.87a78.183,78.183,0,0,1,0,10.663c-.453,3.691-17.552,12.5-27.806,14.759,0,0,15.46-11.888,17.715-16.193a24.723,24.723,0,0,0,2.461-9.228Z" transform="translate(-119.872 -117.584)"/>
      <path id="Tracé_50" data-name="Tracé 50" class="cls-12" d="M289.557,260.064H229.606v4.492s.245,116.881,3.914,146.733c0,0,8.07,1.926,13.206,0,0,0,5.781-70.9,8.838-127.4a3.68,3.68,0,0,1,3.866-3.226h.3a3.679,3.679,0,0,1,3.865,3.226c3.057,56.505,8.839,127.4,8.839,127.4,5.135,1.926,13.206,0,13.206,0,3.668-29.851,3.913-146.733,3.913-146.733Z" transform="translate(-122.761 -100.953)"/>
      <line id="Ligne_6" data-name="Ligne 6" class="cls-13" y2="19.459" transform="translate(129.866 157.266)"/>
      <path id="Tracé_51" data-name="Tracé 51" class="cls-10" d="M248.535,155.532s5.751,0,8.347-4.054" transform="translate(-120.322 -114.944)"/>
      <path id="Tracé_52" data-name="Tracé 52" class="cls-14" d="M252.595,139.521s.752-1.868,2.351-1.868,2.174,1.868,2.174,1.868" transform="translate(-119.799 -116.725)"/>
      <path id="Tracé_53" data-name="Tracé 53" class="cls-14" d="M243.229,139.521s.752-1.868,2.351-1.868,2.174,1.868,2.174,1.868" transform="translate(-121.006 -116.725)"/>
      <path id="Tracé_54" data-name="Tracé 54" class="cls-11" d="M270.557,127.725s-.3-9.848-11.8-8.481-8.47,9.191-15.925,7.841c-10.637-1.927-10.021,7.108-6.92,10.54,3.852,4.263,11.475,6.031,16.151,0,3.37-4.345,8.035-7.418,13.778-2.359v8.419s.137,5.332,2.324,2.6v2.381s-.274,2.871.683,2.871.776-3.818.776-3.818,1.264-2.814,4.037-2.995a19.658,19.658,0,0,1,1.75-3.951c1.589-2.883,2.114-6.783,1.382-9.033C275.8,128.655,273.018,126.665,270.557,127.725Z" transform="translate(-122.203 -119.114)"/>
      <path id="Tracé_55" data-name="Tracé 55" class="cls-6" d="M230.248,271.357l-1.376-58.97-4.251-32.512s3.834-3.865,12.1-4.631,11.216-2.008,11.216-2.008,1.489,6.6,12.024,6.6,13.13-7.423,13.13-7.423,6.879,4.39,12.432,7.071,13.977,6.318,17.808,11.679-7.234,40.948-13.133,37.15v43.039Z" transform="translate(-123.403 -112.246)"/>
      <g id="Groupe_30" data-name="Groupe 30" transform="translate(0 53.697)">
        <path id="Tracé_56" data-name="Tracé 56" class="cls-9" d="M241.421,182.173c-7.284-.01-11.831,10.025-17.1,15.624-6.609,7.026-16.583,19.346-39.747,2.683-6.948-5-17.066-20.3-17.066-20.3s-.025-4.54-4.944-8.5a55.288,55.288,0,0,1-4.969-4.3c-2.856-2.576-2.035,2.587,1.158,5.99-2.74-.79-11.338-1.159-14.765-1.571s-5.359.017-5.975,1.144c-.5.92,8.273,1.714,11.52,1.975-3.382-.245-12.924-.822-13.8.372-1.164,1.587,1.939,1.419,11.427,2.488,0,0-8.321-.309-10.863.648-2.994,1.127-.471,2.108,2.61,2.359,3.557.291,9.533.724,9.533.724s-7.209-.191-9.5,1.067c-1.586.871-.429,1.8,1.926,1.876,2.009.068,16.194.633,20.314.8,8.807,31.692,30.848,44.44,50.836,42.054,20.115-2.4,28.813-18.162,33.226-22.646C245.246,204.654,250.339,182.184,241.421,182.173Z" transform="translate(-134.956 -166.682)"/>
        <path id="Tracé_57" data-name="Tracé 57" class="cls-15" d="M162.7,178.171s-3.126-2.448-8.574,1.848c0,0-4.352-.239-5.632.763" transform="translate(-133.211 -165.291)"/>
      </g>
      <path id="Tracé_58" data-name="Tracé 58" class="cls-6" d="M208.677,200.055l14.835,19.1,34.332-33.307L232.3,176.387s-7.661.766-14.172,11.827C215.009,193.518,208.677,200.055,208.677,200.055Z" transform="translate(-125.458 -111.734)"/>
      <path id="Tracé_59" data-name="Tracé 59" class="cls-16" d="M208.677,197.715l14.834,19.1,3.164-3.138-15.439-19.119Z" transform="translate(-125.458 -109.393)"/>
      <g id="Groupe_33" data-name="Groupe 33" transform="translate(116.47 75.976)">
        <path id="Tracé_60" data-name="Tracé 60" class="cls-17" d="M238.132,211.608V190.084l38.662,15.555v34.547L238.132,225.9Z" transform="translate(-238.132 -185.945)"/>
        <path id="Tracé_61" data-name="Tracé 61" class="cls-17" d="M245.9,207.942V186.418l38.662,15.555V236.52L245.9,222.231Z" transform="translate(-237.131 -186.418)"/>
        <path id="Tracé_62" data-name="Tracé 62" class="cls-17" d="M272.382,204.336l8.77-4.139v34.547l-8.77,4.591Z" transform="translate(-233.719 -184.642)"/>
        <g id="Groupe_32" data-name="Groupe 32">
          <g id="Groupe_31" data-name="Groupe 31" class="cls-18">
            <path id="Tracé_63" data-name="Tracé 63" class="cls-19" d="M286.766,204.224l-9.9,4.938-39.3-16.233" transform="translate(-238.205 -185.579)"/>
            <path id="Tracé_64" data-name="Tracé 64" class="cls-19" d="M286.766,207.277l-9.9,4.938-39.3-16.233" transform="translate(-238.205 -185.186)"/>
          </g>
        </g>
        <path id="Tracé_66" data-name="Tracé 66" class="cls-4" d="M239.495,191.012s9.9,2.207,7.906-3.331l36.667,14.753-7.449,3.515Z" transform="translate(-237.957 -186.255)"/>
      </g>
      <g id="Groupe_36" data-name="Groupe 36" transform="translate(107.7 82.514)">
        <path id="Tracé_67" data-name="Tracé 67" class="cls-8" d="M230.364,217.4V195.876l38.662,15.555v34.547l-38.662-14.289Z" transform="translate(-230.364 -191.737)"/>
        <path id="Tracé_68" data-name="Tracé 68" class="cls-8" d="M238.132,213.733V192.209l38.662,15.555v34.547l-38.662-14.289Z" transform="translate(-229.363 -192.209)"/>
        <path id="Tracé_69" data-name="Tracé 69" class="cls-8" d="M264.613,210.128l8.77-4.139v34.547l-8.77,4.591Z" transform="translate(-225.951 -190.434)"/>
        <path id="Tracé_70" data-name="Tracé 70" class="cls-4" d="M231.726,196.8s9.9,2.206,7.906-3.332L276.3,208.225l-7.449,3.516Z" transform="translate(-230.188 -192.047)"/>
        <g id="Groupe_35" data-name="Groupe 35">
          <g id="Groupe_34" data-name="Groupe 34" class="cls-20">
            <path id="Tracé_71" data-name="Tracé 71" class="cls-19" d="M278.693,210.187l-9.563,4.793-39.579-16.469" transform="translate(-230.468 -191.397)"/>
            <path id="Tracé_72" data-name="Tracé 72" class="cls-19" d="M278.693,213.24l-9.563,4.793-39.579-16.469" transform="translate(-230.468 -191.004)"/>
          </g>
        </g>
      </g>
      <path id="Tracé_74" data-name="Tracé 74" class="cls-9" d="M295.437,188.857l-6.424,27.777c-7.506,39.189-53.912,16.013-53.912,16.013a43.072,43.072,0,0,0,1.92-7.26c.257-2.568.385-2.3.642-4.038s-2.652-1.328-3.63,1.47c-.658,1.882-1.692,1.568-2.3,1.162a2.137,2.137,0,0,1-.45-.79l.071-.639v-2.7s-.905-.224-3.627,1.028c-2.281.811-2.13,2.413-2.13,2.413-2.307,1-1.632,1.287-2.768,4.263-1.219,3.192,5.583,12.321,5.583,12.321,23.3,23.506,50.157,19.369,63.317,6.7C308.227,230.694,313.015,195.926,295.437,188.857Z" transform="translate(-123.653 -110.128)"/>
      <path id="Tracé_75" data-name="Tracé 75" class="cls-6" d="M278.454,225.336s12.294,5.967,22.422,5.584c0,0,10.058-40.3-13.385-47.773Z" transform="translate(-116.467 -110.863)"/>
      <path id="Tracé_76" data-name="Tracé 76" class="cls-16" d="M300.876,226.657s-9.4.894-22.422-5.584l1.035-4.833s12.355,5.518,22.389,5.306Z" transform="translate(-116.467 -106.599)"/>
      <path id="Tracé_77" data-name="Tracé 77" class="cls-16" d="M257.8,184.531a18.38,18.38,0,0,0,16.762-9.883,33.131,33.131,0,0,1-3.633-2.231s-2.6,7.423-13.13,7.423-12.024-6.6-12.024-6.6a24.246,24.246,0,0,1-4.357,1.095C242.824,177.745,246.979,184.531,257.8,184.531Z" transform="translate(-121.239 -112.246)"/>
      <g id="Groupe_37" data-name="Groupe 37" transform="translate(149.055 28.387)">
        <path id="Tracé_78" data-name="Tracé 78" class="cls-10" d="M272.08,144.564a3.376,3.376,0,0,0-4.151,1.116c-1.342,1.583-.838,5.093-.838,5.093" transform="translate(-266.999 -144.26)"/>
        <line id="Ligne_7" data-name="Ligne 7" class="cls-10" x1="2.6" transform="translate(0.093 3.754)"/>
      </g>
      <path id="Tracé_79" data-name="Tracé 79" class="cls-21" d="M256.924,264.461a1.992,1.992,0,1,0-1.992,1.992A1.992,1.992,0,0,0,256.924,264.461Z" transform="translate(-119.755 -100.643)"/>
    </g>
  </g>
</svg>
